# xmcd
#
# Track frame offsets:
#	150
#	15545
#	29177
#	46550
#	68902
#	84800
#	100060
#	118365
#	139185
#	163402
#	180870
#	194615
#
# Disc length: 2811 seconds
#
# Revision: 3
# Processed by: cddbd v1.5.2PL0 Copyright (c) Steve Scherf et al.
# Submitted via: audiograbber 1.83.01
#
DISCID=9f0af90c
DTITLE=Yoakam, Dwight - Guitars, Cadillacs, etc., etc. (20th anniversary editio
DTITLE=n) - CD2
DYEAR=1986
DGENRE=Country
TTITLE0=Can't you hear me calling (Live at The Roxy 1986)
TTITLE1=Honky tonk man (Live at The Roxy 1986)
TTITLE2=Guitars, Cadillacs (Live at The Roxy 1986)
TTITLE3=Rocky road blues (Live at The Roxy 1986)
TTITLE4=Heartaches by the number (Live at The Roxy 1986)
TTITLE5=I'll be gone (Live at The Roxy 1986)
TTITLE6=It won't hurt (Live at The Roxy 1986)
TTITLE7=My bucket's got a hole in it (Live at The Roxy 1986)
TTITLE8=South of Cincinnati (Live at The Roxy 1986)
TTITLE9=Mystery train (Live at The Roxy 1986)
TTITLE10=Ring of fire (Live at The Roxy 1986)
TTITLE11=Since I started drinking again (Live at The Roxy 1986)
EXTD=
EXTT0=
EXTT1=
EXTT2=
EXTT3=
EXTT4=
EXTT5=
EXTT6=
EXTT7=
EXTT8=
EXTT9=
EXTT10=
EXTT11=
PLAYORDER=
